<svg width="32" height="32" viewBox="0 0 16 16" fill="none" xmlns="http://www.w3.org/2000/svg">
  <path d="M8 0.198c-4.418 0-8 3.582-8 8 0 3.535 2.292 6.537 5.472 7.592.4.074.548-.174.548-.388 0-.19-.007-.694-.01-1.363-2.204.478-2.673-1.066-2.673-1.066-.36-.914-.878-1.157-.878-1.157-.716-.489.054-.479.054-.479.792.055 1.209.812 1.209.812.703 1.204 1.842.855 2.292.654.072-.508.275-.855.5-1.051-2.005-.228-4.112-1.006-4.112-4.482 0-.992.354-1.8.935-2.43-.094-.228-.404-1.146.088-2.386 0 0 .764-.245 2.5.935a8.66 8.66 0 012.282-.308c.774 0 1.558.104 2.282.308 1.736-1.18 2.5-.935 2.5-.935.492 1.24.182 2.158.088 2.386.582.63.935 1.438.935 2.43 0 3.487-2.109 4.248-4.113 4.477.283.242.533.727.533 1.464 0 1.056-.01 1.91-.01 2.168 0 .216.146.465.552.387C13.708 14.735 16 11.733 16 8.198c0-4.418-3.582-8-8-8z" fill="#0F2137"/>
</svg>
